<svg preserveAspectRatio="none" width="100%" height="100%" overflow="visible" style="display: block;" viewBox="0 0 45 45" fill="none" xmlns="http://www.w3.org/2000/svg">
<g id="Group 39">
<path id="Subtract" d="M2.28711 17.458C1.70237 17.6318 0.942247 17.6521 0.418945 17.9795C0.994725 18.3495 1.72262 18.4754 2.38965 18.3213C2.60493 18.6429 3.06064 18.7771 3.41602 18.624C3.49801 19.1184 4.06604 19.4699 4.54492 19.3232C4.46234 19.6023 4.67287 19.9011 4.93848 20.0195C5.20439 20.1381 5.50849 20.1228 5.79883 20.1055C5.61281 20.3234 5.77874 20.6896 6.04102 20.8057C6.3031 20.9216 6.60615 20.8648 6.88672 20.8066C6.67542 21.0373 6.84931 21.4433 7.13379 21.5732C7.41873 21.7029 7.74992 21.6427 8.05664 21.5801C7.85215 21.7247 7.95645 22.0804 8.18066 22.1924C8.4048 22.3045 8.67257 22.2513 8.91699 22.1953C8.79888 22.266 8.80303 22.453 8.89258 22.5576C8.9823 22.6625 9.12511 22.7032 9.26074 22.7285C9.62475 22.7962 10.0026 22.7913 10.3643 22.7129C10.1508 22.9329 10.3616 23.3371 10.6582 23.415C10.9241 23.485 11.1982 23.3846 11.4521 23.2695C11.3401 23.3635 11.3499 23.5986 11.4854 23.6943C11.6505 23.8103 11.8774 23.7682 12.0664 23.6973C12.2554 23.6263 12.4469 23.5292 12.6475 23.5518C12.397 23.5544 12.3371 23.9601 12.5332 24.1162C12.7297 24.2721 13.018 24.2272 13.25 24.1318C13.482 24.0364 13.7056 23.897 13.9561 23.8848C13.8039 23.8888 13.7688 24.1318 13.8828 24.2324C13.997 24.3332 14.1695 24.3246 14.3203 24.3037C14.6699 24.2548 15.0146 24.168 15.3457 24.0449C15.2267 24.3082 15.5275 24.6048 15.8164 24.5986C16.1052 24.5923 16.3512 24.3977 16.5732 24.2129C16.6192 24.5266 16.9837 24.7112 17.2988 24.6758C17.4363 24.6603 17.5649 24.6132 17.6885 24.5518V45H4.82129C2.15873 44.9998 0.000173678 42.8413 0 40.1787V17.5195C0.759776 17.6139 1.53399 17.5965 2.28711 17.458ZM42.9385 17.458C43.6172 17.5828 44.3131 17.6075 45 17.543V40.1787C44.9998 42.8413 42.8413 44.9999 40.1787 45H27.5283V24.5479C27.6546 24.6115 27.787 24.66 27.9277 24.6758C28.2428 24.711 28.6064 24.5267 28.6523 24.2129C28.8744 24.3977 29.1205 24.5922 29.4092 24.5986C29.6981 24.6049 29.9989 24.3082 29.8799 24.0449C30.2111 24.1681 30.5565 24.2551 30.9062 24.3037C31.057 24.3248 31.2287 24.3331 31.3428 24.2324C31.4571 24.1315 31.4215 23.8886 31.2695 23.8848C31.5199 23.897 31.7437 24.0364 31.9756 24.1318C32.2076 24.2273 32.4959 24.2719 32.6924 24.1162C32.8888 23.9602 32.8285 23.5542 32.5781 23.5518C32.7787 23.5294 32.9702 23.6263 33.1592 23.6973C33.3482 23.7682 33.5751 23.8105 33.7402 23.6943C33.8762 23.5989 33.8856 23.3635 33.7734 23.2695C34.0274 23.3846 34.3015 23.4846 34.5674 23.415C34.8639 23.3373 35.0751 22.9331 34.8623 22.7129C35.224 22.7912 35.601 22.7961 35.9648 22.7285C36.1005 22.7032 36.2433 22.6626 36.333 22.5576C36.4227 22.4527 36.4268 22.266 36.3086 22.1953C36.5531 22.2511 36.8207 22.3045 37.0449 22.1924C37.2691 22.0802 37.3731 21.7244 37.168 21.5801C37.4747 21.6427 37.8058 21.7027 38.0908 21.5732C38.3756 21.4435 38.5503 21.0374 38.3389 20.8066C38.6194 20.8648 38.9222 20.9216 39.1846 20.8057C39.4467 20.6897 39.6128 20.3237 39.4268 20.1055C39.7174 20.1231 40.0212 20.1381 40.2871 20.0195C40.5531 19.9009 40.7636 19.6023 40.6807 19.3232C41.1599 19.47 41.7279 19.1184 41.8096 18.624C42.1649 18.7772 42.6203 18.6429 42.8359 18.3213C43.503 18.4754 44.2306 18.3495 44.8066 17.9795C44.283 17.6522 43.5232 17.6318 42.9385 17.458ZM40.1787 0C42.8413 0.000110999 44.9998 2.15871 45 4.82129V12.5352C43.2875 13.1157 41.5728 13.7089 40.002 14.5322C37.6021 15.79 35.0823 16.8377 32.457 17.5215C32.0912 17.6169 31.7224 17.7045 31.3477 17.7549C30.6316 17.8514 29.9048 17.8086 29.1836 17.7656C28.1149 17.7015 26.5028 17.7031 25.7676 16.8125C25.8356 17.1801 25.7488 17.9606 25.9043 18.2637C25.0942 16.6857 25.0783 14.8389 24.8564 13.0791C24.7995 12.6282 24.719 12.1565 24.4375 11.7998C23.8968 11.1153 22.5452 10.7459 21.7598 11.1182C20.8769 11.5368 20.4892 12.1129 20.3672 13.0801C20.1457 14.8399 20.1294 16.6861 19.3193 18.2637C19.4749 17.9603 19.3881 17.1801 19.4561 16.8125C18.7208 17.7031 17.1084 17.7018 16.04 17.7656C15.3189 17.8089 14.5921 17.8514 13.876 17.7549C13.5015 17.7045 13.1324 17.6169 12.7666 17.5215C10.1414 16.8377 7.62144 15.79 5.22168 14.5322C3.5823 13.6731 1.78677 13.0629 0 12.458V4.82129C0.000175503 2.15874 2.15873 0.00016102 4.82129 0H40.1787ZM1.33203 16.9092C0.892755 17.0066 0.447441 17.0775 0 17.125V16.916C0.444468 16.9312 0.891208 16.9268 1.33203 16.9092ZM43.8936 16.9092C44.2598 16.9238 44.6304 16.9313 45 16.9248V17.0996C44.6287 17.0531 44.2589 16.9902 43.8936 16.9092Z" fill="var(--fill-0, #FFDD00)"/>
</g>
</svg>
