<svg preserveAspectRatio="none" width="100%" height="100%" overflow="visible" style="display: block;" viewBox="0 0 99.8551 99.8551" fill="none" xmlns="http://www.w3.org/2000/svg">
<g id="Group 34" filter="url(#filter0_d_0_79)">
<circle id="Ellipse 15" cx="49.9275" cy="48.7539" r="48.7539" fill="var(--fill-0, #F5F5F5)"/>
<path id="Subtract" d="M29.582 40.3239C30.8374 40.3239 31.9274 40.5373 32.8505 40.9645C33.7788 41.3865 34.499 41.98 35.0107 42.7448C35.5223 43.5097 35.7833 44.3965 35.7939 45.404H32.0429C31.9902 44.8237 31.7555 44.3722 31.3388 44.0505C30.9274 43.7235 30.3389 43.5602 29.5742 43.5602C29.068 43.5603 28.646 43.6257 28.3085 43.7575C27.971 43.8893 27.7176 44.0714 27.5488 44.3034C27.38 44.5302 27.2933 44.7922 27.288 45.0876C27.2775 45.3301 27.3252 45.5437 27.4306 45.7282C27.5414 45.9127 27.6996 46.0761 27.9052 46.2184C28.1162 46.3556 28.3696 46.4772 28.665 46.5827C28.9603 46.6881 29.2929 46.78 29.662 46.8591L31.0546 47.1765C31.8562 47.3505 32.563 47.5827 33.1747 47.8727C33.7918 48.1628 34.3088 48.508 34.7255 48.9089C35.1475 49.3098 35.4663 49.7714 35.6826 50.2936C35.8988 50.8159 36.0103 51.4017 36.0156 52.0505C36.0102 53.0737 35.7518 53.9521 35.2402 54.6852C34.7285 55.4184 33.9922 55.9804 33.0322 56.3708C32.0774 56.7611 30.9244 56.9557 29.5742 56.9557C28.2188 56.9557 27.0376 56.7524 26.0302 56.3464C25.0227 55.9402 24.2388 55.323 23.6796 54.4948C23.1206 53.6668 22.8332 52.6199 22.8173 51.3542H26.5673C26.599 51.8763 26.7394 52.3118 26.9872 52.6599C27.2351 53.0078 27.5753 53.2716 28.0077 53.4509C28.4456 53.6302 28.9523 53.7194 29.5273 53.7194C30.0547 53.7194 30.5028 53.648 30.872 53.5056C31.2464 53.3632 31.5339 53.1658 31.7343 52.9128C31.9347 52.6597 32.0375 52.3695 32.0429 52.0427C32.0376 51.7367 31.9433 51.4748 31.7587 51.2585C31.5741 51.037 31.2891 50.8474 30.9042 50.6891C30.5245 50.5256 30.0389 50.3751 29.4482 50.238L27.7548 49.8425C26.3517 49.5207 25.2465 49.0012 24.4394 48.2839C23.6323 47.5612 23.231 46.5852 23.2363 45.3561C23.231 44.3539 23.5006 43.4757 24.0439 42.7214C24.5872 41.9671 25.3387 41.3787 26.2988 40.9567C27.2587 40.5348 28.3531 40.324 29.582 40.3239ZM52.1367 44.4382C52.9121 44.4382 53.6271 44.5309 54.2812 44.7155C54.9352 44.8949 55.5049 45.1584 55.9902 45.5065C56.4754 45.8494 56.8504 46.2711 57.1142 46.7722C57.2509 47.0268 57.3526 47.3001 57.4199 47.5915V44.5964H58.5185V47.8825C58.5129 47.8848 58.506 47.8878 58.5009 47.8942C58.4943 47.9029 58.4917 47.9126 58.4911 47.9167C58.4908 47.9205 58.4912 47.9251 58.4911 47.9265C58.4911 47.9301 58.4908 47.934 58.4902 47.9382C58.2454 49.6443 57.1669 51.0156 55.5117 51.3815L55.4863 51.3864C55.4806 51.3851 55.4755 51.3842 55.4716 51.3835C55.4676 51.3828 55.4628 51.3817 55.4589 51.3815C55.4571 51.3815 55.4541 51.3822 55.4511 51.3825C55.4492 51.3828 55.4456 51.3834 55.4423 51.3845C55.4391 51.3856 55.4325 51.3883 55.4267 51.3942C55.4235 51.3976 55.4199 51.4023 55.4179 51.4079C55.4159 51.4137 55.4154 51.4201 55.4159 51.4255C55.4172 51.4356 55.4214 51.4431 55.4238 51.446C55.4264 51.4492 55.4291 51.4516 55.4306 51.4528C55.4322 51.4541 55.4343 51.4551 55.4355 51.4557C55.4393 51.458 55.4437 51.4597 55.4462 51.4606C55.452 51.4628 55.4594 51.4649 55.4667 51.4665C55.4743 51.4681 55.4839 51.47 55.4931 51.4704L55.496 51.4694C55.5097 51.473 55.5272 51.4777 55.5488 51.4841C55.7595 51.5467 55.9516 51.5945 56.1533 51.6784V51.6774C57.475 52.2321 58.3223 53.5007 58.5185 54.9489V56.2692H58.5956V54.9518L58.7245 54.2907L58.7236 54.2897C59.1012 52.9618 60.0216 51.9375 61.289 51.5505V56.7497H53.8779V55.0573H53.7831C53.5669 55.4686 53.2896 55.8165 52.9521 56.1013C52.6199 56.386 52.2268 56.5995 51.7734 56.7419C51.325 56.8843 50.8182 56.9557 50.2538 56.9557C49.4784 56.9557 48.7898 56.8265 48.1884 56.5681C47.5925 56.3043 47.1205 55.9089 46.7724 55.3815C46.4295 54.8488 46.2578 54.1813 46.2577 53.3796C46.2577 52.7045 46.3769 52.1348 46.6142 51.6706C46.8516 51.2064 47.1789 50.8289 47.5956 50.5388C48.0122 50.2488 48.492 50.0302 49.0351 49.8825C49.5784 49.7295 50.1591 49.6267 50.7763 49.5739C51.4671 49.5106 52.0233 49.4442 52.4452 49.3757C52.8672 49.3018 53.1733 49.1989 53.3632 49.0671C53.5583 48.93 53.6561 48.7376 53.6562 48.4899V48.4499C53.6562 48.0439 53.5166 47.73 53.2372 47.5085C52.9577 47.2869 52.5801 47.1765 52.1054 47.1765C51.5937 47.1765 51.1823 47.2869 50.871 47.5085C50.5598 47.73 50.3617 48.0361 50.2773 48.4265L46.7089 48.2995C46.8144 47.5611 47.0866 46.9022 47.5243 46.322C47.9674 45.7365 48.5737 45.2773 49.3437 44.945C50.119 44.6074 51.0501 44.4382 52.1367 44.4382ZM42.662 44.5964H44.8534V47.445H42.662V52.9284C42.662 53.1655 42.6987 53.3579 42.7724 53.5056C42.8515 53.648 42.9655 53.7508 43.1132 53.8141C43.2608 53.8721 43.4371 53.902 43.6425 53.902C43.7901 53.902 43.9459 53.8883 44.1093 53.862C44.2779 53.8304 44.4048 53.804 44.4892 53.7829L45.0751 56.5759C44.8905 56.6286 44.6295 56.695 44.2919 56.7741C43.9596 56.8532 43.5608 56.9034 43.0966 56.9245C42.1895 56.9667 41.4114 56.8613 40.7626 56.6081C40.1191 56.3496 39.626 55.9483 39.2831 55.405C38.9456 54.8618 38.7824 54.1788 38.7929 53.3561V47.445H37.1865V44.5964H38.7929V41.6852H42.662V44.5964ZM77.0771 47.0182L71.8544 53.6647V53.7438H77.2665V56.7497H66.83V54.5427L72.4638 47.6823V47.6032H67.0283V44.5964H77.0771V47.0182ZM53.6796 51.2751C53.5689 51.333 53.4344 51.3859 53.2763 51.4333C53.1235 51.4807 52.9548 51.5249 52.7704 51.5671C52.5858 51.6093 52.3953 51.6468 52.2001 51.6784C52.0051 51.71 51.8179 51.739 51.6386 51.7653C51.2748 51.8233 50.9634 51.9126 50.705 52.0339C50.4518 52.1552 50.2562 52.3143 50.1191 52.5095C49.9874 52.6992 49.9219 52.9257 49.9218 53.1891C49.9218 53.5899 50.0639 53.8961 50.3486 54.1071C50.6386 54.3181 51.0053 54.4235 51.4482 54.4235C51.8649 54.4235 52.2399 54.3394 52.5722 54.1706C52.9097 54.0018 53.1784 53.7696 53.3788 53.4743C53.5792 53.1737 53.6795 52.8258 53.6796 52.4304V51.2751ZM64.1376 44.4304C64.3169 44.4304 64.5016 44.4441 64.6913 44.4704C64.8811 44.4915 65.0582 44.5255 65.2216 44.5729V47.9352C65.037 47.872 64.7945 47.8217 64.4941 47.7849C64.1988 47.7479 63.9351 47.7302 63.7031 47.7302C63.2442 47.7302 62.8301 47.8331 62.4609 48.0388C62.0969 48.2392 61.8086 48.5215 61.5976 48.8854C61.392 49.244 61.289 49.666 61.289 50.1511V51.2975C61.2237 51.2788 61.1586 51.2601 61.0937 51.236C59.6996 50.7222 58.7812 49.4227 58.6005 47.9138L58.5966 47.8835L58.5956 47.8825V44.5964H61.1786V46.8122H61.3056C61.5271 46.0104 61.8885 45.4145 62.3896 45.0241C62.8906 44.6286 63.4731 44.4304 64.1376 44.4304Z" fill="var(--fill-0, #0D1B4B)"/>
</g>
<defs>
<filter id="filter0_d_0_79" x="5.19212e-08" y="9.58866e-06" width="99.8551" height="99.8551" filterUnits="userSpaceOnUse" color-interpolation-filters="sRGB">
<feFlood flood-opacity="0" result="BackgroundImageFix"/>
<feColorMatrix in="SourceAlpha" type="matrix" values="0 0 0 0 0 0 0 0 0 0 0 0 0 0 0 0 0 0 127 0" result="hardAlpha"/>
<feOffset dy="1.17368"/>
<feGaussianBlur stdDeviation="0.586841"/>
<feComposite in2="hardAlpha" operator="out"/>
<feColorMatrix type="matrix" values="0 0 0 0 0 0 0 0 0 0 0 0 0 0 0 0 0 0 0.25 0"/>
<feBlend mode="normal" in2="BackgroundImageFix" result="effect1_dropShadow_0_79"/>
<feBlend mode="normal" in="SourceGraphic" in2="effect1_dropShadow_0_79" result="shape"/>
</filter>
</defs>
</svg>
